<svg xmlns="http://www.w3.org/2000/svg" width="26" height="26" viewBox="0 0 26 26">
    <path
        d="M13 8.016A4.993 4.993 0 0 0 8.016 13 4.993 4.993 0 0 0 13 17.984 4.993 4.993 0 0 0 17.984 13 4.993 4.993 0 0 0 13 8.016m0-1.485a.7.7 0 0 0 .508-.21.7.7 0 0 0 .21-.508V4.375A.717.717 0 0 0 13 3.656a.717.717 0 0 0-.719.719v1.438c0 .398.32.718.719.718m0 12.938a.7.7 0 0 0-.508.21.7.7 0 0 0-.21.509v1.437c0 .398.32.719.718.719s.719-.32.719-.719v-1.437a.7.7 0 0 0-.211-.508.7.7 0 0 0-.508-.211m5.59-11.043 1.015-1.016a.721.721 0 0 0-.32-1.21.71.71 0 0 0-.695.195L17.574 7.41a.717.717 0 0 0 0 1.016.717.717 0 0 0 1.016 0M7.41 17.574 6.395 18.59a.72.72 0 0 0-.215.71.72.72 0 0 0 .523.524.72.72 0 0 0 .707-.219l1.016-1.015a.717.717 0 0 0 0-1.016.717.717 0 0 0-1.016 0M6.531 13a.7.7 0 0 0-.21-.508.7.7 0 0 0-.508-.21H4.375a.717.717 0 0 0-.719.718c0 .398.32.719.719.719h1.438a.7.7 0 0 0 .507-.211.7.7 0 0 0 .211-.508m15.094-.719h-1.437a.717.717 0 0 0-.72.719c0 .398.321.719.72.719h1.437c.398 0 .719-.32.719-.719a.717.717 0 0 0-.719-.719M7.41 8.426a.717.717 0 0 0 1.016 0 .717.717 0 0 0 0-1.016L7.41 6.395A.719.719 0 1 0 6.395 7.41Zm11.18 9.148a.71.71 0 0 0-.7-.195.72.72 0 0 0-.511.512.71.71 0 0 0 .195.699l1.016 1.015c.18.2.45.282.707.215a.72.72 0 0 0 .309-1.23Zm0 0"/>
</svg>