<svg xmlns="http://www.w3.org/2000/svg" width="32" height="32" viewbox="0 0 32 32"><path style="stroke-width:.0547609" d="M16 9.866A6.141 6.141 0 0 0 9.867 16 6.141 6.141 0 0 0 16 22.133 6.141 6.141 0 0 0 22.133 16 6.141 6.141 0 0 0 16 9.866zm0-1.828a.884.884 0 0 0 .885-.884v-1.77a.885.885 0 0 0-1.77 0v1.77c0 .489.395.884.885.884zm0 15.923a.883.883 0 0 0-.885.884v1.77a.885.885 0 1 0 1.77 0v-1.77a.884.884 0 0 0-.885-.884zm6.878-13.592 1.252-1.25a.885.885 0 1 0-1.252-1.251l-1.25 1.25a.884.884 0 1 0 1.25 1.251zM9.12 21.632l-1.25 1.25a.885.885 0 1 0 1.25 1.25l1.25-1.25a.884.884 0 1 0-1.25-1.251ZM8.04 16a.884.884 0 0 0-.885-.885H5.385a.885.885 0 1 0 0 1.77h1.77A.883.883 0 0 0 8.037 16zm18.576-.885h-1.77a.885.885 0 1 0 0 1.77h1.77a.885.885 0 1 0 0-1.77zM9.118 10.369a.884.884 0 1 0 1.251-1.25L9.118 7.868a.884.884 0 1 0-1.25 1.25zM22.88 21.63a.884.884 0 1 0-1.25 1.25l1.25 1.251a.885.885 0 1 0 1.25-1.25z"/></svg>
